<svg xmlns="http://www.w3.org/2000/svg" viewBox="0 0 24 24" width="24" height="24">
  <!-- 8-bit Orange -->
  <!-- Stem -->
  <rect x="11" y="2" width="2" height="2" fill="#228B22"/>
  <rect x="13" y="2" width="2" height="2" fill="#32CD32"/>
  <!-- Leaf -->
  <rect x="14" y="4" width="2" height="2" fill="#32CD32"/>
  <rect x="16" y="4" width="2" height="2" fill="#228B22"/>
  <!-- Orange body outline -->
  <rect x="8" y="4" width="6" height="2" fill="#FF8C00"/>
  <rect x="6" y="6" width="2" height="2" fill="#FF8C00"/>
  <rect x="14" y="6" width="2" height="2" fill="#CC7000"/>
  <rect x="4" y="8" width="2" height="8" fill="#FF8C00"/>
  <rect x="18" y="8" width="2" height="8" fill="#CC7000"/>
  <rect x="6" y="16" width="2" height="2" fill="#CC7000"/>
  <rect x="16" y="16" width="2" height="2" fill="#CC7000"/>
  <rect x="8" y="18" width="8" height="2" fill="#CC7000"/>
  <!-- Inner orange -->
  <rect x="6" y="8" width="12" height="8" fill="#FFA500"/>
  <rect x="8" y="6" width="6" height="2" fill="#FFA500"/>
  <rect x="8" y="16" width="8" height="2" fill="#FF8C00"/>
  <!-- Highlight -->
  <rect x="8" y="8" width="2" height="2" fill="#FFD700"/>
  <rect x="10" y="8" width="2" height="2" fill="#FFCC00"/>
  <rect x="8" y="10" width="2" height="2" fill="#FFCC00"/>
  <!-- Texture dots -->
  <rect x="12" y="12" width="2" height="2" fill="#FF8C00"/>
  <rect x="14" y="10" width="2" height="2" fill="#FF8C00"/>
</svg>
