<svg xmlns="http://www.w3.org/2000/svg" viewBox="0 0 24 24" width="24" height="24">
  <!-- 8-bit Watermelon Slice -->
  <!-- Green rind outer -->
  <rect x="2" y="14" width="20" height="4" fill="#228B22"/>
  <rect x="4" y="18" width="16" height="2" fill="#006400"/>
  <rect x="6" y="20" width="12" height="2" fill="#228B22"/>
  <!-- Light green rind -->
  <rect x="2" y="12" width="20" height="2" fill="#90EE90"/>
  <rect x="4" y="14" width="16" height="2" fill="#98FB98"/>
  <!-- Pink flesh -->
  <rect x="4" y="4" width="16" height="8" fill="#FF6B6B"/>
  <rect x="6" y="2" width="12" height="2" fill="#FF6B6B"/>
  <rect x="2" y="10" width="2" height="2" fill="#FF6B6B"/>
  <rect x="20" y="10" width="2" height="2" fill="#FF6B6B"/>
  <!-- Darker pink edge -->
  <rect x="4" y="10" width="16" height="2" fill="#FF5252"/>
  <!-- Seeds -->
  <rect x="8" y="6" width="2" height="2" fill="#1A1A1A"/>
  <rect x="14" y="6" width="2" height="2" fill="#1A1A1A"/>
  <rect x="10" y="8" width="2" height="2" fill="#1A1A1A"/>
  <rect x="16" y="8" width="2" height="2" fill="#1A1A1A"/>
  <rect x="6" y="8" width="2" height="2" fill="#1A1A1A"/>
  <rect x="12" y="4" width="2" height="2" fill="#1A1A1A"/>
</svg>
