<svg xmlns="http://www.w3.org/2000/svg" viewBox="0 0 24 24" width="24" height="24">
  <!-- 8-bit Gold Coin -->
  <rect x="8" y="2" width="8" height="2" fill="#FFD700"/>
  <rect x="6" y="4" width="2" height="2" fill="#FFD700"/>
  <rect x="16" y="4" width="2" height="2" fill="#FFD700"/>
  <rect x="4" y="6" width="2" height="2" fill="#FFD700"/>
  <rect x="18" y="6" width="2" height="2" fill="#B8860B"/>
  <rect x="4" y="8" width="2" height="8" fill="#FFD700"/>
  <rect x="18" y="8" width="2" height="8" fill="#B8860B"/>
  <rect x="4" y="16" width="2" height="2" fill="#FFD700"/>
  <rect x="18" y="16" width="2" height="2" fill="#B8860B"/>
  <rect x="6" y="18" width="2" height="2" fill="#B8860B"/>
  <rect x="16" y="18" width="2" height="2" fill="#B8860B"/>
  <rect x="8" y="20" width="8" height="2" fill="#B8860B"/>
  <!-- Inner shine -->
  <rect x="6" y="6" width="12" height="12" fill="#FFEC8B"/>
  <rect x="8" y="4" width="8" height="2" fill="#FFEC8B"/>
  <rect x="8" y="18" width="8" height="2" fill="#DAA520"/>
  <!-- Dollar sign -->
  <rect x="11" y="6" width="2" height="2" fill="#B8860B"/>
  <rect x="9" y="8" width="6" height="2" fill="#B8860B"/>
  <rect x="9" y="10" width="2" height="2" fill="#B8860B"/>
  <rect x="11" y="12" width="2" height="2" fill="#B8860B"/>
  <rect x="13" y="14" width="2" height="2" fill="#B8860B"/>
  <rect x="9" y="16" width="6" height="2" fill="#B8860B"/>
  <rect x="11" y="8" width="2" height="10" fill="#B8860B"/>
</svg>
