<svg xmlns="http://www.w3.org/2000/svg" viewBox="0 0 24 24" width="24" height="24">
  <!-- 8-bit Crystal Ball -->
  <!-- Base/Stand -->
  <rect x="8" y="20" width="8" height="2" fill="#8B4513"/>
  <rect x="6" y="22" width="12" height="2" fill="#A0522D"/>
  <rect x="10" y="18" width="4" height="2" fill="#654321"/>
  <!-- Ball outline -->
  <rect x="8" y="4" width="8" height="2" fill="#9370DB"/>
  <rect x="6" y="6" width="2" height="2" fill="#9370DB"/>
  <rect x="16" y="6" width="2" height="2" fill="#4B0082"/>
  <rect x="4" y="8" width="2" height="8" fill="#9370DB"/>
  <rect x="18" y="8" width="2" height="8" fill="#4B0082"/>
  <rect x="6" y="16" width="2" height="2" fill="#4B0082"/>
  <rect x="16" y="16" width="2" height="2" fill="#4B0082"/>
  <rect x="8" y="18" width="2" height="2" fill="#4B0082"/>
  <rect x="14" y="18" width="2" height="2" fill="#4B0082"/>
  <!-- Inner glow -->
  <rect x="6" y="8" width="12" height="8" fill="#BA55D3"/>
  <rect x="8" y="6" width="8" height="2" fill="#BA55D3"/>
  <rect x="8" y="16" width="8" height="2" fill="#8B008B"/>
  <!-- Mystical shine -->
  <rect x="8" y="8" width="2" height="2" fill="#E6E6FA"/>
  <rect x="10" y="10" width="2" height="2" fill="#DDA0DD"/>
  <rect x="6" y="10" width="2" height="4" fill="#DA70D6"/>
  <!-- Stars inside -->
  <rect x="14" y="12" width="2" height="2" fill="#FFFFFF"/>
  <rect x="12" y="8" width="2" height="2" fill="#E6E6FA"/>
</svg>
